<?xml version="1.0" encoding="utf-8"?>
<!-- Generator: Adobe Illustrator 17.0.0, SVG Export Plug-In . SVG Version: 6.00 Build 0)  -->
<!DOCTYPE svg PUBLIC "-//W3C//DTD SVG 1.1//EN" "http://www.w3.org/Graphics/SVG/1.1/DTD/svg11.dtd">
<svg version="1.1" id="Capa_1" xmlns="http://www.w3.org/2000/svg" xmlns:xlink="http://www.w3.org/1999/xlink" x="0px" y="0px"
	 width="145.852px" height="35px" viewBox="0 0 145.852 35" enable-background="new 0 0 145.852 35" xml:space="preserve">
<g>
	<g>
		<path fill="#828282" d="M44.962,32.556c-1.765,0-3.101-0.401-3.101-0.401v-2.878h1.381v1.499l0.266,0.268
			c0.4,0.073,0.891,0.12,1.454,0.12c1.216,0,1.588-0.565,1.588-1.381c0-0.861-0.341-1.201-1.572-1.543
			c-2.122-0.577-3.087-1.335-3.087-3.307c0-2.019,1.633-3.056,3.887-3.056c1.588,0,2.804,0.385,2.804,0.385v2.744h-1.379v-1.379
			l-0.252-0.253c-0.341-0.059-0.728-0.103-1.173-0.103c-1.052,0-1.661,0.49-1.661,1.247c0,0.77,0.163,1.126,1.781,1.571
			c1.942,0.535,3.04,1.334,3.04,3.131C48.937,31.502,47.321,32.556,44.962,32.556z"/>
		<path fill="#828282" d="M56.281,28.862h-3.931c0.074,1.663,0.682,2.271,2.121,2.271c0.786,0,1.409-0.239,1.646-0.312v1.187
			c-0.386,0.268-1.142,0.549-2.417,0.549c-1.914,0-3.62-1.128-3.62-3.916c0-2.878,1.543-4.243,3.397-4.243
			c1.795,0,3.069,1.217,3.069,3.189v1.009L56.281,28.862z M52.365,27.823h2.047v-0.385c0-1.142-0.236-1.693-0.919-1.693
			C52.796,25.745,52.454,26.489,52.365,27.823z"/>
		<path fill="#828282" d="M60.88,29.427c-0.355,0-0.696-0.031-1.022-0.105c-0.193,0.147-0.298,0.342-0.298,0.535
			c0,0.281,0.178,0.415,0.608,0.415h2.241c1.364,0,2.521,0.401,2.521,2.047c0,1.883-1.898,2.76-4.198,2.76
			c-1.988,0-3.249-0.401-3.249-1.677c0-0.638,0.505-1.025,1.023-1.276c-0.549-0.237-0.921-0.744-0.921-1.426
			c0-0.607,0.372-1.274,1.232-1.794c-0.667-0.415-1.083-1.083-1.083-2.003c0-1.722,1.453-2.507,3.145-2.507
			c0.416,0,0.831,0.045,1.202,0.148h2.805v1.083h-0.994l-0.134,0.134c0.178,0.326,0.281,0.696,0.281,1.142
			C64.04,28.608,62.572,29.427,60.88,29.427z M59.56,32.274c-0.118,0.148-0.252,0.431-0.252,0.846c0,0.607,0.371,0.964,1.47,0.964
			c1.156,0,1.929-0.357,1.929-1.143c0-0.565-0.343-0.668-0.95-0.668H59.56z M60.88,25.614c-0.696,0-1.097,0.429-1.097,1.29
			c0,0.847,0.4,1.29,1.097,1.29c0.712,0,1.112-0.443,1.112-1.29C61.992,26.043,61.592,25.614,60.88,25.614z"/>
		<path fill="#828282" d="M72.304,24.544c0.593,0,0.683,0.342,0.683,0.652v5.861l0.268,0.267h0.652v1.083h-2.359
			c-0.593,0-0.682-0.342-0.682-0.652v-0.239h-0.074c-0.238,0.268-0.965,1.039-2.107,1.039c-1.766,0-2.284-1.067-2.284-2.374v-4.287
			l-0.267-0.267h-0.653v-1.083h2.492c0.594,0,0.683,0.342,0.683,0.652v4.629c0,0.446,0.045,1.053,0.905,1.053
			c0.519,0,0.935-0.237,1.172-0.399v-4.585l-0.268-0.267h-0.651v-1.083H72.304z"/>
		<path fill="#828282" d="M78.148,31.324h0.831v1.083h-4.258v-1.083h0.652l0.268-0.267v-5.162l-0.268-0.267h-0.652v-1.083h2.359
			c0.592,0,0.683,0.342,0.683,0.652v0.387h0.073c0.237-0.298,0.979-1.187,2.137-1.187c0.282,0,0.564,0.045,0.564,0.045v3.1h-1.336
			v-1.039l-0.253-0.237c-0.459,0.089-0.845,0.268-1.053,0.385v4.407L78.148,31.324z"/>
		<path fill="#828282" d="M84.913,32.556c-2.001,0-3.545-1.262-3.545-4.078c0-2.819,1.544-4.081,3.545-4.081
			c2.004,0,3.547,1.262,3.547,4.081C88.46,31.294,86.917,32.556,84.913,32.556z M84.913,25.806c-0.993,0-1.245,0.861-1.245,2.671
			c0,1.808,0.252,2.668,1.245,2.668c0.995,0,1.247-0.86,1.247-2.668C86.16,26.667,85.908,25.806,84.913,25.806z"/>
		<path fill="#828282" d="M92.153,32.556c-1.572,0-2.536-0.34-2.536-0.34v-2.195h1.231v0.992L91.1,31.28
			c0.312,0.044,0.653,0.059,1.054,0.059c0.86,0,1.144-0.384,1.144-0.947c0-0.58-0.164-0.863-1.395-1.114
			c-1.841-0.371-2.241-1.351-2.241-2.373c0-1.574,1.157-2.507,3.16-2.507c1.275,0,2.255,0.251,2.255,0.251V26.8h-1.23v-0.905
			l-0.253-0.237c-0.238-0.03-0.489-0.061-0.771-0.061c-0.742,0-1.186,0.326-1.186,0.802c0,0.474,0.045,0.83,1.157,1.053
			c1.942,0.401,2.64,1.111,2.64,2.298C95.432,31.65,94.066,32.556,92.153,32.556z"/>
	</g>
	<g>
		<path fill="#828282" d="M42.243,3.111l-0.446-0.443h-1.086V0.865h7.361c4.176,0,6.869,1.653,6.869,5.483
			c0,3.83-2.693,5.633-6.869,5.633h-1.827v3.928l0.42,0.446h1.309v1.803h-7.263v-1.803h1.086l0.446-0.446V3.111z M46.245,3.433
			v5.981h1.827c2.101,0,2.719-0.964,2.719-2.99c0-1.977-0.618-2.99-2.719-2.99H46.245z"/>
		<path fill="#828282" d="M59.685,0.123c0.988,0,1.137,0.568,1.137,1.086v14.7l0.419,0.446h1.113v1.803h-6.82v-1.803h1.087
			l0.446-0.446V2.371l-0.446-0.443h-1.087V0.123H59.685z"/>
		<path fill="#828282" d="M74.436,5.065c0.987,0,1.136,0.568,1.136,1.086v9.758l0.445,0.446h1.087v1.803h-3.928
			c-0.989,0-1.137-0.567-1.137-1.088v-0.394h-0.124c-0.396,0.445-1.605,1.729-3.509,1.729c-2.94,0-3.804-1.778-3.804-3.952V7.312
			l-0.444-0.445H63.07V5.065h4.151c0.987,0,1.137,0.568,1.137,1.086v7.708c0,0.741,0.073,1.754,1.507,1.754
			c0.864,0,1.556-0.396,1.951-0.668V7.312l-0.444-0.445h-1.088V5.065H74.436z"/>
		<path fill="#828282" d="M82.589,18.405c-2.618,0-4.225-0.568-4.225-0.568v-3.656h2.051v1.656l0.42,0.443
			c0.518,0.075,1.087,0.099,1.754,0.099c1.433,0,1.903-0.643,1.903-1.581c0-0.964-0.272-1.433-2.324-1.853
			c-3.062-0.617-3.73-2.249-3.73-3.952c0-2.62,1.928-4.177,5.263-4.177c2.124,0,3.754,0.42,3.754,0.42V8.82h-2.049V7.312
			l-0.42-0.396C84.59,6.866,84.17,6.817,83.7,6.817c-1.234,0-1.977,0.544-1.977,1.334c0,0.791,0.075,1.384,1.928,1.754
			c3.236,0.668,4.397,1.852,4.397,3.83C88.049,16.899,85.775,18.405,82.589,18.405z"/>
		<path fill="#828282" d="M99.536,3.111l-0.443-0.443h-1.086V0.865h6.324v1.803h-1.111l-0.42,0.443v9.365
			c0,4.05-2.446,5.929-6.252,5.929c-3.706,0-6.25-1.879-6.25-5.929V3.111l-0.444-0.443h-1.088V0.865h7.066v1.803h-1.111L94.3,3.111
			v9.365c0,2.197,0.741,3.36,2.619,3.36c2.076,0,2.617-1.163,2.617-3.36V3.111z"/>
		<path fill="#828282" d="M109.445,0.123c0.989,0,1.137,0.568,1.137,1.086v14.7l0.421,0.446h1.111v1.803h-6.819v-1.803h1.088
			l0.444-0.446V2.371l-0.444-0.443h-1.088V0.123H109.445z"/>
		<path fill="#828282" d="M118.191,6.916v8.994l0.445,0.446h2.396v1.803c0,0-1.581,0.247-3.336,0.247
			c-2.15,0-3.261-0.791-3.261-3.063V6.916h-1.532V5.112h1.088l0.444-0.443l1.408-3.065h2.347v3.508h2.768v1.804H118.191z"/>
		<path fill="#828282" d="M127.505,16.355h1.385v1.803h-7.091v-1.803h1.087l0.445-0.446V7.312l-0.445-0.445h-1.087V5.065h3.928
			c0.989,0,1.137,0.568,1.137,1.086v0.643h0.124c0.396-0.495,1.63-1.977,3.558-1.977c0.47,0,0.938,0.075,0.938,0.075v5.164h-2.224
			V8.325l-0.42-0.396c-0.766,0.15-1.408,0.445-1.754,0.643v7.338L127.505,16.355z"/>
		<path fill="#828282" d="M144.578,18.158h-3.928c-0.988,0-1.137-0.567-1.137-1.088v-0.394h-0.123
			c-0.396,0.445-1.606,1.729-3.51,1.729c-2.84,0-3.754-1.804-3.754-3.928c0-2.322,1.704-3.68,4.373-3.68h2.791V9.61
			c0-1.433-0.073-2.472-2.198-2.472c-0.321,0-0.717,0.026-1.111,0.075l-0.372,0.371v1.728h-2.297V5.534
			c0,0.023,2.075-0.718,5.114-0.718c3.533,0,4.62,1.902,4.62,4.2v6.893l0.445,0.446h1.086V18.158z M139.291,14.945v-2.148h-1.754
			c-1.137,0-1.656,0.495-1.656,1.309c0,1.038,0.347,1.508,1.508,1.508C138.204,15.614,138.896,15.217,139.291,14.945z"/>
	</g>
	<path fill="#DC0028" d="M14.717,18.552c3.776,3.664,5.245,9.827,5.896,12.259c0.382,1.423,1.845,2.268,3.267,1.885
		c1.423-0.38,2.268-1.843,1.887-3.267c-0.652-2.43-2.461-8.504-1.022-13.563c1.284-5.104,5.888-9.456,7.667-11.236
		c1.042-1.042,1.042-2.732,0-3.771c-1.041-1.041-2.729-1.041-3.771,0c-1.779,1.78-6.134,6.381-11.236,7.666l0,0
		C12.344,9.964,6.27,8.156,3.839,7.504C2.416,7.122,0.953,7.966,0.573,9.39c-0.381,1.423,0.463,2.885,1.886,3.267
		C4.89,13.309,11.054,14.776,14.717,18.552L14.717,18.552z"/>
</g>
</svg>
